<?xml version="1.0" standalone="no"?>
<!DOCTYPE svg PUBLIC "-//W3C//DTD SVG 20010904//EN"
 "http://www.w3.org/TR/2001/REC-SVG-20010904/DTD/svg10.dtd">
<svg version="1.0" xmlns="http://www.w3.org/2000/svg"
 width="260.000000pt" height="260.000000pt" viewBox="0 0 260.000000 260.000000"
 preserveAspectRatio="xMidYMid meet">
<metadata>
Created by potrace 1.11, written by Peter Selinger 2001-2013
</metadata>
<g transform="translate(0.000000,260.000000) scale(0.100000,-0.100000)"
fill="#000000" stroke="none">
<path d="M1135 2403 c-44 -7 -102 -21 -130 -30 -46 -15 -177 -77 -200 -95
-159 -121 -295 -284 -295 -353 0 -35 24 -75 46 -75 8 0 14 -4 14 -9 0 -4 19
-21 43 -37 23 -16 44 -31 47 -34 3 -3 41 -34 86 -68 88 -68 127 -78 159 -42
10 11 15 20 11 20 -5 0 6 12 23 27 17 15 31 31 31 35 0 4 27 34 59 65 76 75
135 98 247 97 68 0 91 -5 138 -28 70 -35 116 -88 116 -136 0 -94 -52 -160
-172 -221 -176 -89 -306 -221 -348 -353 -15 -47 -19 -168 -7 -216 18 -71 16
-70 257 -70 251 0 252 0 271 91 12 55 50 124 82 147 9 7 14 18 11 24 -4 6 -3
8 3 5 5 -3 24 7 42 23 17 16 33 29 34 28 7 -4 87 44 87 52 0 6 4 9 9 7 19 -4
179 138 174 155 -2 4 1 8 5 8 11 0 46 69 67 130 35 100 39 216 11 340 -11 51
-76 167 -129 231 -102 123 -275 229 -442 271 -98 25 -243 29 -350 11z"/>
<path d="M1087 780 c-70 -5 -86 -15 -88 -55 0 -11 -1 -115 -1 -230 -1 -186 1
-214 17 -238 l17 -27 232 0 c132 0 237 4 246 10 8 5 11 10 7 10 -5 0 -1 7 7
16 14 13 16 50 16 244 0 202 -2 230 -17 249 -17 19 -30 21 -193 23 -96 2 -206
1 -243 -2z"/>
</g>
</svg>
